. 
 
http://www.torrenting.com          :     Once & For all ;)


               www . Torrenting . Com 

(((((((((((((= Enjoy No RAR releases =))))))))))))))))))))


...................................NFO:....................................

.[img]http://cdn.buzznet.com/media-cdn/jj1/headlines/2011/09/sam-worthington-man-ledge-poster-stills.jpg[/img]

---Man On A Ledge CaM READNFO XViD - UMiRiN---


Video
ID                                       : 0
Format                                   : MPEG-4 Visual
Format profile                           : Advanced Simple@L5
Format settings, BVOP                    : 2
Format settings, QPel                    : No
Format settings, GMC                     : No warppoints
Format settings, Matrix                  : Default (MPEG)
Muxing mode                              : Packed bitstream
Codec ID                                 : XVID
Codec ID/Hint                            : XviD
Duration                                 : 1h 36mn
Bit rate                                 : 2 179 Kbps
Width                                    : 640 pixels
Height                                   : 268 pixels
Display aspect ratio                     : 2.40:1
Frame rate                               : 25.000 fps
Color space                              : YUV
Chroma subsampling                       : 4:2:0
Bit depth                                : 8 bits
Scan type                                : Progressive
Compression mode                         : Lossy
Bits/(Pixel*Frame)                       : 0.508
Stream size                              : 1.47 GiB (94%)
Writing library                          : XviD 64

Audio
ID                                       : 1
Format                                   : MPEG Audio
Format version                           : Version 1
Format profile                           : Layer 3
Mode                                     : Joint stereo
Mode extension                           : MS Stereo
Codec ID                                 : 55
Codec ID/Hint                            : MP3
Duration                                 : 1h 36mn
Bit rate mode                            : Variable
Bit rate                                 : 128 Kbps
Minimum bit rate                         : 32.0 Kbps
Channel(s)                               : 2 channels
Sampling rate                            : 44.1 KHz
Compression mode                         : Lossy
Stream size                              : 88.1 MiB (6%)
Alignment                                : Aligned on interleaves
Interleave, duration                     : 26 ms (0.65 video frame)
Interleave, preload duration             : 81 ms
Title                                    : NEW1
Writing library                          : LAME3.99r
Encoding settings                        : -m j -V 5 -q 0 -lowpass 16.7 --vbr-new -b 32



[IMG]http://i1176.photobucket.com/albums/x331/bmbrls/2-2.png[/IMG]
[IMG]http://i1176.photobucket.com/albums/x331/bmbrls/1-2.png[/IMG]
[IMG]http://i1176.photobucket.com/albums/x331/bmbrls/LP.png[/IMG]


SOURCES: NOGRP


---ViDEO---
Done alot of adjusting to the white level's in this, really
trying to get down those strong white spot's. also a fair bit
of coloring work done trying to get the colors their but not
overpowering.. and then a simple denoise and so on

---AUDiO---
syncd, mostly the star needed sorting, and as before audio 11db increase,
 declipped by -0.4 declick decrackle, anti noise, added lo mid and high


---MY NOTES---
release groups are not the enemy, 
its time for the industries to wake up